<mxfile host="app.diagrams.net" modified="2024-06-03T07:30:42.071Z" agent="Mozilla/5.0 (Windows NT 10.0; Win64; x64) AppleWebKit/537.36 (KHTML, like Gecko) Chrome/125.0.0.0 Safari/537.36" version="24.4.10" etag="6I5Fy0rByPbn6zyrZpTM" type="github">
  <diagram name="Page-1" id="giGl11q3IetMFo7rEvkF">
    <mxGraphModel>
      <root>
        <mxCell id="0" />
        <mxCell id="1" parent="0" />
      </root>
    </mxGraphModel>
  </diagram>
</mxfile>
